<?xml version="1.0" standalone="no"?>
<!DOCTYPE svg PUBLIC "-//W3C//DTD SVG 20010904//EN"
 "http://www.w3.org/TR/2001/REC-SVG-20010904/DTD/svg10.dtd">
<svg version="1.0" xmlns="http://www.w3.org/2000/svg"
 width="1024.000000pt" height="1024.000000pt" viewBox="0 0 1024.000000 1024.000000"
 preserveAspectRatio="xMidYMid meet">
<metadata>
Created by potrace 1.14, written by Peter Selinger 2001-2017
</metadata>
<g transform="translate(0.000000,1024.000000) scale(0.100000,-0.100000)"
fill="#000000" stroke="none">
<path d="M4735 10230 c-1102 -89 -2122 -512 -2955 -1226 -150 -129 -410 -388
-539 -539 -724 -843 -1150 -1875 -1231 -2980 -13 -180 -13 -550 0 -730 91
-1237 614 -2382 1489 -3255 880 -879 2017 -1399 3256 -1490 179 -13 550 -13
730 0 1238 91 2378 612 3256 1489 846 847 1345 1901 1479 3126 18 163 24 649
11 840 -105 1497 -841 2852 -2036 3750 -760 571 -1598 898 -2580 1006 -130 14
-738 20 -880 9z m2443 -1600 c53 -6 122 -15 152 -21 70 -13 264 -60 269 -66 3
-2 -241 -250 -541 -551 -582 -584 -592 -595 -644 -747 -25 -70 -28 -94 -28
-200 0 -103 4 -130 27 -193 37 -106 82 -176 167 -263 123 -123 279 -189 450
-189 136 0 246 33 357 107 31 20 299 277 597 570 l541 533 14 -33 c30 -72 80
-300 92 -419 25 -272 -34 -566 -167 -833 -75 -151 -169 -280 -299 -410 -129
-129 -258 -223 -410 -300 -378 -189 -801 -222 -1204 -93 l-94 30 -887 -887
-887 -887 28 -81 c140 -408 107 -851 -92 -1237 -148 -286 -372 -519 -646 -670
-381 -212 -808 -255 -1241 -127 -46 14 -86 28 -90 31 -3 4 233 246 524 539
292 293 545 551 562 573 87 114 138 282 128 424 -11 165 -71 295 -192 416 -67
68 -96 89 -175 127 -52 25 -122 51 -157 58 -88 17 -241 7 -322 -20 -149 -51
-167 -66 -751 -648 l-547 -545 -26 79 c-131 393 -105 795 75 1173 134 281 352
521 622 684 388 234 864 288 1304 150 l83 -26 447 442 c247 243 647 644 891
891 l443 448 -30 93 c-166 522 -59 1080 290 1503 332 404 866 628 1367 575z"/>
</g>
</svg>
